Coordinates
version=1
nRows=5
nColumns=40
inDegrees=yes

Units are S.I. units (second, meters, Newtons, ...)
Angles are in degrees.

endheader
time	pelvis_tilt	pelvis_list	pelvis_rotation	pelvis_tx	pelvis_ty	pelvis_tz	hip_flexion_r	hip_adduction_r	hip_rotation_r	knee_angle_r	knee_angle_r_beta	ankle_angle_r	subtalar_angle_r	mtp_angle_r	hip_flexion_l	hip_adduction_l	hip_rotation_l	knee_angle_l	knee_angle_l_beta	ankle_angle_l	subtalar_angle_l	mtp_angle_l	lumbar_extension	lumbar_bending	lumbar_rotation	arm_flex_r	arm_add_r	arm_rot_r	elbow_flex_r	pro_sup_r	wrist_flex_r	wrist_dev_r	arm_flex_l	arm_add_l	arm_rot_l	elbow_flex_l	pro_sup_l	wrist_flex_l	wrist_dev_l
      1.36000000	      4.59985008	     -4.55316105	     -1.86731961	      0.58963263	      0.90182059	      1.01286300	     -3.86974375	      8.21270266	    -13.61457594	    -17.51121899	     -0.30562843	      9.48736652	      5.34305304	     -1.26548772	     19.61516548	      6.73127070	      4.88823055	    -44.70289543	     -0.78021271	      3.19780879	      4.74754552	    -12.04606555	     -8.55966533	      5.45267426	      6.28572062	      8.43532851	    -14.23234623	     24.93199161	     23.43466440	     89.95437384	      0.00000000	      0.00000000	      4.62762425	      5.79441828	     -7.66146666	     28.04185689	     89.95437384	      0.00000000	      0.00000000
      1.37000000	      4.77354087	     -4.34911604	     -2.30104989	      0.60103377	      0.90131708	      1.01375317	     -4.98439948	      7.93418205	    -13.65961226	    -17.38395884	     -0.30340732	      9.86428955	      5.67801442	     -1.69272747	     19.78734279	      6.36847325	      5.27312572	    -41.45552122	     -0.72353534	      3.07725569	      3.94641463	    -11.80885303	     -8.80026866	      5.09557711	      6.43157476	      9.07696764	    -14.37196654	     24.44670191	     24.80552914	     89.95437384	      0.00000000	      0.00000000	      4.14079096	      5.73506893	     -7.07355221	     25.69061445	     89.95437384	      0.00000000	      0.00000000
      1.38000000	      4.94500360	     -4.16689325	     -2.77866852	      0.61229954	      0.90078222	      1.01462347	     -6.01377132	      7.62582079	    -13.67718388	    -17.38428411	     -0.30341300	     10.15792973	      6.11217740	     -2.21929064	     19.80136479	      6.03159729	      5.64586687	    -37.92751088	     -0.66195994	      2.61191853	      3.09378745	    -11.53688144	     -9.07907579	      4.76528123	      6.56650575	      9.76396426	    -14.44017141	     23.92381399	     26.06864308	     89.95437384	      0.00000000	      0.00000000	      3.74762855	      5.69573699	     -6.72972459	     23.17568719	     89.95437384	      0.00000000	      0.00000000
      1.39000000	      4.69942604	     -4.21231202	     -3.13724247	      0.62343659	      0.89933601	      1.01528514	     -6.56342261	      7.63849322	    -13.45189409	    -17.41607796	     -0.30396790	     10.47629063	      6.30992702	     -2.45259457	     20.43128309	      5.93192653	      5.99638279	    -34.60495144	     -0.60397034	      2.13175171	      2.59879358	    -11.22476891	     -8.85313253	      4.75861070	      6.55154687	     10.45406257	    -14.51990662	     23.70635704	     27.16218627	     89.95437384	      0.00000000	      0.00000000	      3.40268477	      5.68548595	     -6.87874370	     20.47808466	     89.95437384	      0.00000000	      0.00000000
      1.40000000	      4.67834180	     -4.12109726	     -3.60758483	      0.63462926	      0.89818570	      1.01609423	     -7.30717590	      7.43942111	    -13.17364068	    -17.55998935	     -0.30647963	     10.91235757	      6.53537565	     -2.75373502	     20.53902899	      5.76638947	      6.58712385	    -30.98499262	     -0.54079014	      1.09049465	      1.93273340	    -10.82453841	     -8.92248205	      4.55295853	      6.69194426	     10.99110570	    -14.63134946	     23.34674638	     28.55828233	     89.95437384	      0.00000000	      0.00000000	      2.98628317	      5.68160329	     -7.09053575	     18.05987975	     89.95437384	      0.00000000	      0.00000000
